<?xml version="1.0" encoding="utf-8"?>
<!-- Generator: Adobe Illustrator 22.0.1, SVG Export Plug-In . SVG Version: 6.00 Build 0)  -->
<svg version="1.1" xmlns="http://www.w3.org/2000/svg" xmlns:xlink="http://www.w3.org/1999/xlink" x="0px" y="0px"
	 viewBox="0 0 500 500" style="enable-background:new 0 0 500 500;" xml:space="preserve">
<style type="text/css">
	.st0{fill:#FFFFFF;stroke:#FFFFFF;stroke-width:7;stroke-miterlimit:10;}
	.st1{fill:#020202;}
	.st2{fill:none;stroke:#000000;stroke-width:3;stroke-miterlimit:10;}
	.st3{fill:#F7F2F2;}
	.st4{fill:#FFFFFF;stroke:#000000;stroke-miterlimit:10;}
</style>
<g id="fondo">
	<circle class="st0" cx="250.5" cy="228.5" r="158"/>
</g>
<g id="color">
	<polygon class="st1" points="152.5,110.5 171.5,136.5 197.5,173.5 222.5,205.5 251.5,235.5 266.5,246.5 326.5,286.5 362.5,305.5 
		377.5,311.5 381.5,311.5 395.5,282.5 402.5,258.5 404.5,220.5 400.5,190.5 392.5,168.5 381.5,146.5 361.5,121.5 334.5,99.5 
		308.5,85.5 277.5,77.5 256.5,74.5 234.5,75.5 214.5,79.5 204.5,82.5 177.5,93.5 157.5,105.5 	"/>
	<polygon points="104,182 110,188 112,199 122,216 142,239 184,282 227,317 268,344 290,354 316,365 321,367 347,349 362,336 
		366,332 363,329 306,300 264,272 229,244 189,198 163,162 143,134 138,128 136,126 132,132 118,152 110,167 	"/>
	<polygon points="98,220 98,250 104,275 112,296 130,324 151,346 179,365 199,374 225,381 253,383 270,382 288,379 288,377 265,366 
		248,356 227,344 209,332 172,301 156,287 132,262 108,233 	"/>
</g>
<g id="lines">
	<path class="st2" d="M170.8,134.9c6.6,10.2,13.9,20.3,21.2,30.3c13.7,18.9,27.4,37.7,43.5,54.6c15.6,16.4,33.6,29.3,52.3,42
		c29.2,19.9,59.7,38.1,92.7,50.8C396,288.5,405,259.8,405,229c0-85.1-68.9-154-154-154c-37.7,0-72.2,13.5-98.9,36
		C159.8,117.6,165.3,126.3,170.8,134.9z"/>
	<path class="st2" d="M110.4,191c0.8,7.9,4.6,14.7,9.5,21.7c5.9,8.6,12.8,16.4,19.7,24.2c29.1,32.3,59.6,62.6,96.1,86.5
		c26.4,17.3,54.7,31.8,84,43.5c17.9-8.9,33.8-21.2,46.8-36.1c-12.6-5.1-24.9-11-36.9-17.4c-20.7-11.1-40.5-23.8-59.8-37.1
		c-19.2-13.3-37.4-27.3-53.4-44.4c-16.2-17.4-30-36.6-43.8-55.9c-6.8-9.5-13.7-18.9-20-28.7c-4.6-7.2-9.8-16.1-16.2-20.6
		c-0.1-0.1-0.2-0.2-0.3-0.3c-14.5,16.2-25.6,35.5-32.2,56.8C107.3,184.6,110,187.3,110.4,191z"/>
	<path class="st2" d="M276.8,371.8c-44.2-21.4-84.2-49.5-119.3-83.8c-14.5-14.2-28.4-29.3-41.7-44.8c-6.2-7.3-13.1-15.5-18.5-24.4
		c-0.2,3.4-0.3,6.8-0.3,10.2c0,85.1,68.9,154,154,154c13.5,0,26.6-1.8,39.1-5C285.6,376,281.2,373.9,276.8,371.8z"/>
</g>
<g id="Capa_1">
	<polyline class="st3" points="176.6,251.5 182.9,259.9 186.3,268.3 188.4,276 191.9,292.8 194,297.7 194.7,299.1 202.4,302.6 
		210.8,304.7 213.6,305.4 216.4,306.1 219.9,304.7 226.2,300.5 230.4,296.3 231.8,294.2 233.2,290 232.5,288.6 229,289.3 
		220.6,291.4 216.4,286.5 215.7,280.9 217.1,275.3 219.2,269.7 221.3,261.3 222,252.9 222,248 224.1,244.6 228.3,241.1 233.2,240.4 
		235.3,240.4 238.1,241.8 240.9,243.2 242.3,244.6 243,250.1 243,257.8 241.6,267.6 243,277.4 245,283.7 247.8,288.6 252.7,294.2 
		259.7,299.1 265.3,300.5 275.8,299.8 279.3,298.4 281.4,296.3 282.1,293.5 280.7,291.4 276.5,290 270.9,290 268.1,289.3 
		266.7,283.7 266.7,274.6 269.5,263.4 273,256.4 279.3,247.3 289.1,239 291.9,238.3 291.9,240.4 292.6,245.3 294.7,253.6 
		296.8,261.3 298.9,265.5 300.3,269 302.4,273.9 306.5,281.6 309.3,285.1 314.2,289.3 319.1,292.8 326.1,294.2 328.9,294.2 
		341.5,294.2 350.6,292.1 352,290 349.2,288.6 340.1,287.2 331,285.8 326.1,280.9 324.7,271.8 324.7,255 326.8,241.1 328.2,232.7 
		328.2,225 327.5,224.3 328.2,223.6 331.7,224.3 337.3,225 347.8,225.7 360.4,229.2 370.8,234.1 377.8,237.6 384.1,237.6 
		386.2,236.9 386.9,235.5 390.4,235.5 391.1,234.8 391.1,233.4 391.1,232 393.9,231.3 395.3,229.2 396,227.8 396,227.1 395.3,226.4 
		393.9,226.4 392.5,225 391.8,223.6 385.5,215.2 383.4,208.2 382.7,201.9 379.2,193.5 374.3,185.8 371.5,182.4 370.1,181.7 
		369.4,181 369.4,180.3 370.1,178.9 370.1,176.1 369.4,169.8 367.3,167 365.3,167 360.4,169.1 359,171.9 358.3,171.9 347.1,169.1 
		338,166.3 329.6,162.8 317.7,155.8 304.5,149.5 298.2,148.1 293.3,147.4 283.5,149.5 278.6,153 275.8,155.1 273,156.5 270.9,155.8 
		257.6,153.7 250.6,152.3 237.4,150.9 224.1,150.9 216.4,150.9 207.3,152.3 201.7,153.7 196.8,155.1 180.8,162.1 169.6,169.8 
		163.3,175.4 158.4,181 150,191.4 145.8,198.4 144.4,205.4 143,215.2 141.6,225 140.2,234.1 136.7,248 129.7,271.8 125.5,288.6 
		124.8,293.5 124.8,298.4 131.8,304 143,307.4 150,308.1 159.8,307.4 162.6,306.1 164.7,304 164,300.5 156.3,297.7 153.5,297 
		150,296.3 147.9,296.3 146.5,293.5 147.9,290 150,285.8 153.5,280.2 157,273.9 162.6,266.2 166.8,260.6 175.2,252.9 176.6,251.5 	
		"/>
	<g>
		<g>
			<g>
				<path class="st4" d="M390.2,230.5c0.1,0,0.1,0.2,0.4,0.4c0.2,0.2,0.6,0.5,1.1,0.6c0.5,0.1,1.2-0.1,1.8-0.5
					c0.6-0.4,1.1-1.2,1.5-2c0.2-0.4,0.4-0.8,0.5-1.2c0.1-0.4,0-0.7-0.2-0.9c-0.3-0.4-1.2-0.3-1.8-0.3c-1.2,0-2,0.2-2,0
					c0-0.1,0.7-0.5,2-0.6c0.3,0,0.7-0.1,1.1-0.1c0.4,0,0.9,0,1.4,0.5c0.4,0.4,0.5,1,0.5,1.6c-0.1,0.5-0.3,1-0.5,1.5
					c-0.4,0.9-1,1.7-1.8,2.3c-0.8,0.5-1.7,0.7-2.4,0.5c-0.7-0.2-1.1-0.7-1.3-1C390.1,230.7,390.1,230.5,390.2,230.5z"/>
			</g>
		</g>
	</g>
	<g>
		<g>
			<g>
				<path class="st4" d="M383.9,234.5c0.1-0.2,2.3,1,5.1,0.7c0.5-0.1,1.1-0.2,1.5-0.3c0.4-0.2,0.6-0.4,0.5-0.7c0-0.1-0.4-0.7-0.4-1
					c0-0.5,0.4-0.7,0.6-0.8c0.2-0.1,0.4-0.1,0.4,0c0,0-0.1,0.1-0.2,0.3c-0.1,0.1-0.3,0.3-0.2,0.6c0.1,0.3,0.2,0.2,0.5,0.8
					c0.2,0.6-0.2,1.4-0.8,1.6c-0.6,0.3-1.2,0.4-1.8,0.5c-1.6,0.2-3-0.2-3.9-0.6C384.3,235.1,383.8,234.6,383.9,234.5z"/>
			</g>
		</g>
	</g>
	<g>
		<g>
			<g>
				<path class="st4" d="M386.3,236.8c0,0-0.7,0.5-2.3,0.8c-1.5,0.3-3.8,0.4-6.6-0.2c-2.7-0.7-5.7-2.2-8.9-3.9
					c-3.2-1.7-6.8-3.4-10.8-4.7c-4-1.3-7.9-2.2-11.4-2.7c-3.6-0.5-6.9-0.6-9.6-0.9c-2.7-0.3-5-0.7-6.5-1.1c-1.5-0.4-2.3-0.8-2.3-0.8
					c0-0.1,0.8,0.2,2.3,0.5c1.5,0.3,3.7,0.6,6.4,0.8c2.7,0.2,6,0.3,9.7,0.7c3.6,0.5,7.6,1.3,11.6,2.6c4,1.3,7.7,3,10.9,4.8
					c3.2,1.8,6.1,3.3,8.7,4c2.6,0.7,4.9,0.7,6.3,0.5C385.5,237.1,386.3,236.7,386.3,236.8z"/>
			</g>
		</g>
	</g>
	<g>
		<g>
			<g>
				<path class="st4" d="M392.3,224.7c-0.1,0-0.4-0.6-1.1-1.6c-0.7-1.1-1.8-2.5-3.2-4.3c-1.4-1.8-3.2-3.9-4.2-6.9
					c-0.6-1.5-0.8-3.1-1-4.7c-0.2-1.6-0.4-3.3-0.8-5c-0.7-3.4-1.9-6.4-3.2-9.1c-1.4-2.7-2.9-4.9-4.3-6.6c-1.4-1.8-2.7-3.1-3.6-4
					c-0.9-0.9-1.4-1.4-1.4-1.4c0,0,0.6,0.3,1.6,1.2c1,0.8,2.3,2.1,3.8,3.8c1.5,1.7,3.1,4,4.5,6.7c1.4,2.7,2.6,5.8,3.4,9.3
					c0.4,1.7,0.6,3.4,0.8,5c0.2,1.6,0.4,3.2,0.9,4.5c1,2.8,2.7,4.9,4,6.8c1.4,1.8,2.4,3.3,3,4.5C392.1,224,392.3,224.7,392.3,224.7z
					"/>
			</g>
		</g>
	</g>
	<g>
		<g>
			<g>
				<path class="st4" d="M365.7,187.2c0-0.1,0.3-0.3,0.9-0.9c0.5-0.6,1.2-1.5,1.6-2.8c0.4-1.3,0.6-3,0.3-4.8
					c-0.2-0.9-0.5-1.8-1.1-2.5c-0.6-0.7-1.6-1.1-2.6-1.3c-2-0.4-4,0.7-5.1,2c-1.2,1.4-1.8,3-2,4.3c-0.3,1.4-0.3,2.5-0.3,3.3
					c0,0.8,0,1.2-0.1,1.3c-0.1,0-0.2-0.4-0.3-1.2c-0.1-0.8-0.2-2,0-3.5c0.2-1.5,0.7-3.2,2-4.8c0.6-0.8,1.5-1.5,2.5-1.9
					c1-0.5,2.2-0.6,3.4-0.4c1.2,0.2,2.3,0.7,3,1.6c0.8,0.8,1.2,1.9,1.3,2.9c0.2,2,0,3.7-0.5,5.2c-0.5,1.4-1.3,2.4-2,2.9
					C366.2,187.1,365.8,187.2,365.7,187.2z"/>
			</g>
		</g>
	</g>
	<g>
		<g>
			<g>
				<path class="st4" d="M369.7,179.9c-0.1,0,0.2-0.3,0.3-0.9c0.2-0.6,0.2-1.4,0-2.5c-0.2-1.1-0.3-2.4-0.6-3.9
					c-0.2-1.4-0.3-3.1-1.2-4.3c-0.9-1.1-2.7-1.2-4-0.9c-1.4,0.3-2.5,1-3.3,1.7c-1.6,1.5-1.9,2.9-2.1,2.8c-0.1,0,0-1.5,1.7-3.2
					c0.8-0.8,2-1.6,3.5-2c0.8-0.2,1.6-0.3,2.4-0.1c0.8,0.1,1.8,0.5,2.4,1.3c0.6,0.8,0.9,1.6,1,2.5c0.1,0.8,0.2,1.6,0.3,2.3
					c0.2,1.5,0.3,2.8,0.4,3.9c0.1,1.1,0,2.1-0.3,2.7C370.1,179.7,369.7,179.9,369.7,179.9z"/>
			</g>
		</g>
	</g>
	<g>
		<g>
			<g>
				<path class="st4" d="M292,239.7c0,0,0,0.2,0,0.5c0,0.3,0,0.8,0.1,1.4c0.1,0.6,0.2,1.3,0.4,2.2c0.2,0.9,0.4,1.9,0.6,3
					c1,4.5,2.7,10.9,5.7,18.5c1.5,3.8,3.4,7.9,5.7,12.1c2.3,4.2,5.2,8.6,9.5,11.7c4.3,3.1,9.9,4.8,15.7,5.1c5.8,0.3,11.9-0.7,17.9-2
					c0.8-0.2,1.5-0.4,2.3-0.5c0.7-0.2,1.5-0.4,1.6-0.9c0.2-0.4-0.4-1-1-1.3c-0.6-0.3-1.4-0.5-2.1-0.7c-2.9-0.7-5.9-0.7-8.8-0.9
					c-2.9-0.2-5.9-0.6-8.6-1.8c-1.3-0.6-2.6-1.4-3.6-2.5c-1-1-1.7-2.3-2.2-3.6c-0.9-2.6-1-5.4-1.1-7.9c-0.1-2.6-0.1-5.1-0.1-7.5
					c0.1-4.8,0.4-9.3,0.8-13.4c0.4-4.1,1-7.8,1.5-11c0.5-3.2,1.2-5.9,1.6-8.2c0.3-2.3,0.3-4,0.1-5.2c-0.2-1.2-0.4-1.8-0.4-1.8
					c0,0,0.1,0.1,0.2,0.4c0.1,0.3,0.3,0.7,0.4,1.3c0.3,1.2,0.4,3,0,5.3c-0.3,2.3-0.9,5-1.4,8.2c-0.5,3.2-1,6.9-1.4,10.9
					c-0.4,4.1-0.6,8.5-0.7,13.3c0,2.4,0,4.9,0.1,7.4c0.1,2.5,0.2,5.2,1.1,7.7c0.4,1.2,1.1,2.4,2,3.3c0.9,1,2.1,1.7,3.3,2.3
					c2.5,1.1,5.4,1.6,8.3,1.7c2.9,0.2,6,0.2,9,1c0.8,0.2,1.5,0.4,2.3,0.8c0.4,0.2,0.7,0.5,1,0.8c0.3,0.3,0.5,0.9,0.4,1.5
					c-0.1,0.5-0.6,0.9-1,1.1c-0.4,0.2-0.8,0.3-1.2,0.4c-0.8,0.2-1.5,0.4-2.3,0.5c-6.1,1.4-12.2,2.4-18.2,2
					c-5.9-0.3-11.7-2.1-16.1-5.3c-4.5-3.3-7.3-7.8-9.7-12c-2.3-4.3-4.2-8.4-5.7-12.2c-3-7.6-4.6-14.1-5.5-18.6
					c-0.2-1.1-0.4-2.1-0.6-3c-0.2-0.9-0.3-1.6-0.3-2.2c0-0.6,0-1.1,0-1.4C292,239.9,292,239.7,292,239.7z"/>
			</g>
		</g>
	</g>
	<g>
		<g>
			<g>
				<path class="st4" d="M246.3,285.3c-0.1,0-0.4-0.5-1-1.4c-0.5-1-1.3-2.4-2-4.2c-1.4-3.7-2.6-9.2-1.9-15.2c0.3-3,0.9-5.8,1.2-8.3
					c0.4-2.5,0.4-4.9,0.2-6.8c-0.4-3.9-1.8-5.9-1.7-6c0,0,0.4,0.4,1,1.4c0.5,1,1.1,2.5,1.3,4.5c0.3,2,0.3,4.4,0,6.9
					c-0.3,2.6-0.9,5.4-1.2,8.3c-0.6,5.9,0.4,11.3,1.6,14.9C245.2,283.2,246.4,285.3,246.3,285.3z"/>
			</g>
		</g>
	</g>
	<g>
		<g>
			<g>
				<path class="st4" d="M242.3,245c-0.1,0-0.2-0.3-0.6-0.8c-0.4-0.5-1.1-1-2.2-1.5c-1-0.5-2.2-1.1-3.6-1.6c-1.4-0.5-3-0.8-4.6-0.5
					c-1.6,0.3-3,1.2-4.3,2c-1.2,0.9-2.3,1.7-3.1,2.5c-1.6,1.6-1.9,3-2.1,3c-0.1,0,0-0.4,0.2-1c0.2-0.6,0.7-1.5,1.5-2.4
					c0.8-0.9,1.8-1.8,3.1-2.7c1.2-0.9,2.7-1.9,4.5-2.2c1.8-0.4,3.6,0,5.1,0.6c1.5,0.6,2.6,1.3,3.7,1.8c1,0.6,1.8,1.2,2.1,1.8
					C242.4,244.6,242.4,245,242.3,245z"/>
			</g>
		</g>
	</g>
	<g>
		<g>
			<g>
				<path class="st4" d="M232.8,288.3c0,0.1-0.7,0.3-2.1,0.8s-3.4,1.1-5.8,1.9c-0.6,0.2-1.3,0.4-2,0.6c-0.7,0.2-1.5,0.3-2.3,0.1
					c-0.9-0.2-1.6-0.8-2.1-1.5c-0.5-0.7-0.9-1.4-1.4-2.1c-0.9-1.5-1.8-3.2-2-5.1c-0.2-2,0.5-3.9,1.2-5.8c2.8-7.3,4.3-14.3,4.9-19.5
					c0.3-2.6,0.5-4.6,0.6-6.1c0.1-1.4,0.2-2.2,0.2-2.2c0.1,0,0.1,0.8,0.1,2.3c0,1.4-0.1,3.6-0.3,6.1c-0.5,5.2-1.9,12.3-4.7,19.7
					c-0.7,1.8-1.3,3.7-1.1,5.4c0.1,1.8,0.9,3.4,1.8,4.8c0.9,1.4,1.7,3,3,3.3c1.3,0.3,2.7-0.3,4-0.6c2.5-0.7,4.5-1.2,5.9-1.6
					S232.8,288.2,232.8,288.3z"/>
			</g>
		</g>
	</g>
	<g>
		<g>
			<g>
				<path class="st4" d="M214.8,305.6c0-0.1,1.6,0.1,4-0.6c1.2-0.4,2.5-1,3.9-2c1.3-1,2.7-2.2,4-3.6c1.4-1.4,2.7-2.7,3.7-4
					c1-1.3,1.8-2.5,2.3-3.7c0.2-0.6,0.4-1.1,0.4-1.5c0-0.5-0.2-0.8-0.4-1c-0.5-0.4-0.9-0.4-0.9-0.5c0,0,0.5-0.3,1.1,0.2
					c0.3,0.2,0.6,0.7,0.7,1.3c0.1,0.6-0.1,1.2-0.3,1.8c-0.4,1.2-1.2,2.6-2.2,4c-1,1.4-2.3,2.7-3.7,4.1c-1.4,1.4-2.7,2.7-4.2,3.6
					c-1.4,1-2.9,1.6-4.2,1.9C216.4,306.2,214.7,305.7,214.8,305.6z"/>
			</g>
		</g>
	</g>
	<g>
		<g>
			<g>
				<path class="st4" d="M214.6,305.8c0,0.2-4.8-0.5-10.4-2.5c-5.6-1.9-9.9-4.2-9.7-4.4c0.1-0.2,4.5,1.7,10,3.6
					C210,304.4,214.7,305.6,214.6,305.8z"/>
			</g>
		</g>
	</g>
	<g>
		<g>
			<g>
				<path class="st4" d="M194,297.8c0,0-0.4-0.6-0.9-1.7c-0.5-1.1-1.1-2.8-1.7-5c-0.6-2.1-1.2-4.7-1.8-7.6c-0.6-2.9-1.2-6-1.9-9.3
					c-0.8-3.3-1.7-6.3-2.8-9c-1.1-2.7-2.4-4.9-3.6-6.8c-2.4-3.7-4-5.9-3.9-6c0,0,0.5,0.5,1.3,1.4c0.8,1,1.9,2.4,3.1,4.2
					c1.2,1.8,2.7,4.1,3.8,6.8c1.2,2.7,2.2,5.8,3,9.1c0.8,3.3,1.3,6.5,1.9,9.3c0.5,2.9,1,5.4,1.6,7.6c0.5,2.1,1,3.8,1.4,5
					C193.9,297.1,194.1,297.8,194,297.8z"/>
			</g>
		</g>
	</g>
	<g>
		<g>
			<g>
				<path class="st4" d="M176.3,251.6c0,0-0.5,0.6-1.6,1.5c-1,0.9-2.5,2.3-4.2,4.1c-3.5,3.6-7.9,8.9-12,15.3
					c-4.2,6.3-7.6,12.4-10.1,16.7c-0.6,1.1-1.2,2.1-1.4,3c-0.3,0.9-0.2,1.8,0,2.4c0.5,1.3,1.3,1.6,1.3,1.7c0,0-0.9-0.2-1.6-1.5
					c-0.3-0.7-0.4-1.6-0.2-2.6c0.2-1,0.7-2.1,1.3-3.2c2.4-4.4,5.6-10.5,9.9-16.9c4.2-6.4,8.7-11.7,12.3-15.2
					c1.8-1.8,3.3-3.1,4.4-3.9C175.7,252,176.3,251.5,176.3,251.6z"/>
			</g>
		</g>
	</g>
	<g>
		<g>
			<g>
				<path class="st4" d="M124.8,298.1c0.1,0,0.6,0.6,1.8,1.7c1.2,1,2.9,2.5,5.4,3.8c2.4,1.3,5.6,2.5,9.2,3.3c3.6,0.7,7.7,1,12,0.9
					c2.1-0.1,4.2-0.2,6.1-0.6c1.9-0.5,3.7-1.4,4.5-2.9c0.4-0.7,0.5-1.6,0.2-2.3c-0.3-0.7-0.9-1.2-1.6-1.6c-0.7-0.4-1.4-0.7-2.1-0.9
					c-0.7-0.3-1.4-0.5-2.1-0.7c-2.6-0.9-4.8-1.6-6.4-2c-1.5-0.4-2.4-0.5-2.4-0.6c0-0.1,0.9,0,2.4,0.3c1.6,0.3,3.8,0.8,6.5,1.7
					c0.7,0.2,1.4,0.5,2.1,0.7c0.7,0.2,1.5,0.5,2.3,0.9c0.7,0.4,1.5,1,2,1.9c0.4,0.9,0.3,2.1-0.2,3c-0.5,0.9-1.3,1.6-2.2,2.1
					c-0.9,0.5-1.9,0.9-2.9,1.2c-2,0.5-4.2,0.6-6.3,0.7c-4.3,0.2-8.5-0.1-12.2-0.9c-3.7-0.8-6.9-2.1-9.3-3.5
					c-2.5-1.4-4.2-2.9-5.3-4.1c-0.6-0.6-1-1-1.2-1.4C124.9,298.3,124.8,298.1,124.8,298.1z"/>
			</g>
		</g>
	</g>
	<g>
		<g>
			<g>
				<path class="st4" d="M360.7,172.7c0,0-0.3,0-0.9-0.2c-0.6-0.1-1.5-0.3-2.6-0.6c-2.3-0.6-5.5-1.4-9.6-2.4c-4-1.1-8.8-2.4-14-4.6
					c-5.1-2.1-10.3-5.3-15.8-8.5c-2.8-1.6-5.5-3.1-8.2-4.3c-2.7-1.2-5.4-2.2-8.1-2.9c-5.3-1.4-10.3-1.5-14.3-0.5
					c-2,0.5-3.7,1.2-5.1,2c-1.4,0.8-2.4,1.8-3.4,2.5c-0.9,0.8-1.7,1.3-2.2,1.6c-0.6,0.3-0.9,0.4-0.9,0.3c0,0,0.3-0.2,0.8-0.5
					c0.5-0.3,1.2-0.9,2.1-1.7c0.9-0.8,1.9-1.8,3.3-2.7c1.4-0.9,3.2-1.7,5.2-2.2c4.1-1.1,9.3-1.1,14.7,0.3c2.7,0.7,5.5,1.7,8.2,2.9
					c2.8,1.3,5.5,2.7,8.3,4.3c5.5,3.2,10.7,6.3,15.7,8.5c5,2.2,9.8,3.6,13.8,4.7c4,1.1,7.3,2.1,9.5,2.7c1.1,0.3,2,0.6,2.6,0.8
					C360.4,172.6,360.7,172.7,360.7,172.7z"/>
			</g>
		</g>
	</g>
	<g>
		<g>
			<g>
				<path class="st4" d="M362.1,174.1c-0.2,0.1-0.5,0-0.9-0.2c-0.3-0.2-0.6-0.5-0.5-0.7c0.1-0.2,0.6-0.3,1,0
					C362.2,173.4,362.3,173.9,362.1,174.1z"/>
			</g>
		</g>
	</g>
	<g>
		<g>
			<g>
				<path class="st4" d="M124.7,297.2c0,0,0-0.3,0-1c0-0.3,0-0.7,0-1.2c0-0.5,0.1-1,0.1-1.6c0.1-1.2,0.2-2.7,0.5-4.5
					c0.2-1.7,0.6-3.7,1-5.9c0.9-4.3,2.2-9.4,3.9-15c1.7-5.6,3.7-11.7,5.6-18.1c1.9-6.4,3.5-12.6,4.6-18.4c1-5.7,1.7-10.9,2.3-15.3
					c0.7-4.4,1.2-7.9,1.5-10.3c0.2-1.2,0.4-2.2,0.5-2.8c0.1-0.6,0.2-1,0.2-1c0,0,0,0.3,0,1c-0.1,0.6-0.2,1.6-0.3,2.8
					c-0.3,2.4-0.7,6-1.3,10.4c-0.6,4.4-1.2,9.6-2.2,15.4c-1,5.8-2.6,12-4.5,18.5c-1.9,6.5-4,12.5-5.7,18.1
					c-1.7,5.6-3.1,10.6-4.1,14.9c-0.4,2.2-0.9,4.1-1.1,5.8c-0.3,1.7-0.5,3.2-0.7,4.4c-0.1,0.6-0.2,1.2-0.2,1.6
					c0,0.5-0.1,0.9-0.1,1.2C124.7,296.9,124.7,297.2,124.7,297.2z"/>
			</g>
		</g>
	</g>
	<g>
		<g>
			<g>
				<path class="st4" d="M273.2,156.3c0,0-0.5,0-1.5-0.2c-1-0.2-2.4-0.4-4.2-0.7c-3.7-0.6-8.9-1.6-15.5-2.5
					c-6.6-0.9-14.4-1.8-23.1-1.9c-4.4,0-9,0.2-13.7,0.7c-4.7,0.5-9.6,1.5-14.4,2.8c-1.2,0.4-2.4,0.7-3.6,1.1
					c-1.2,0.4-2.3,0.8-3.5,1.3c-1.2,0.4-2.3,0.9-3.4,1.4c-1.1,0.5-2.2,0.9-3.3,1.5c-2.1,1.1-4.2,2.1-6.2,3.3c-1,0.6-2,1.1-2.9,1.7
					c-0.9,0.6-1.9,1.2-2.8,1.8c-7.3,4.8-13,10.3-17.4,15.2c-1.1,1.3-2.2,2.4-3,3.6c-0.9,1.2-1.8,2.3-2.6,3.3c-1.5,2.2-2.8,4-3.7,5.6
					c-0.9,1.6-1.8,2.8-2.2,3.7c-0.2,0.4-0.4,0.7-0.5,1c-0.1,0.2-0.2,0.3-0.2,0.3c0,0,0-0.1,0.1-0.4c0.1-0.2,0.3-0.6,0.5-1
					c0.4-0.9,1.2-2.1,2.1-3.7c0.9-1.6,2.2-3.5,3.6-5.7c0.8-1.1,1.6-2.2,2.5-3.4c0.9-1.2,2-2.4,3-3.7c4.4-5,10.1-10.6,17.4-15.5
					c0.9-0.6,1.8-1.2,2.8-1.8c0.9-0.6,1.9-1.2,2.9-1.7c2-1.2,4.1-2.2,6.2-3.3c1.1-0.5,2.2-1,3.3-1.5c1.1-0.5,2.2-1,3.4-1.4
					c1.2-0.4,2.3-0.9,3.5-1.3c1.2-0.4,2.4-0.7,3.6-1.1c4.9-1.4,9.8-2.3,14.5-2.8c4.8-0.5,9.4-0.7,13.8-0.6
					c8.8,0.1,16.7,1.1,23.2,2.1c6.6,1,11.8,2,15.5,2.8c1.8,0.4,3.2,0.7,4.2,0.9c0.5,0.1,0.8,0.2,1.1,0.3
					C273.1,156.3,273.2,156.3,273.2,156.3z"/>
			</g>
		</g>
	</g>
	<g>
		<g>
			<g>
				<path class="st4" d="M317.9,225.8c-0.1-0.2,1.2-1.3,3.1-2c2-0.7,3.7-0.6,3.7-0.4c0,0.2-1.6,0.6-3.4,1.2
					C319.5,225.3,318,226,317.9,225.8z"/>
			</g>
		</g>
	</g>
	<g>
		<g>
			<g>
				<path class="st4" d="M181,257.1c-0.2,0.1-5.8-7.7-12.6-17.4s-12.1-17.8-11.9-17.9c0.2-0.1,5.8,7.7,12.6,17.4
					C175.9,249,181.2,257,181,257.1z"/>
			</g>
		</g>
	</g>
	<g>
		<g>
			<g>
				<path class="st4" d="M269.3,289.5c0-0.1,0.9,0.3,2.5,0.3c0.8,0,1.8-0.1,3-0.1c1.2-0.1,2.6-0.1,4.1,0.4c0.7,0.3,1.5,0.6,2.1,1.3
					c0.6,0.6,1.1,1.5,1.1,2.5c0.1,1.9-1,3.9-2.7,5c-1.8,1.1-3.9,1.6-6,1.9c-2.2,0.3-4.4,0.3-6.7,0c-4.6-0.5-8.8-2.3-12.1-4.5
					c-3.3-2.3-5.7-5.1-7.3-7.6c-1.6-2.5-2.5-4.8-3-6.4c-0.2-0.8-0.4-1.4-0.5-1.9c-0.1-0.4-0.1-0.7-0.1-0.7c0.1,0,0.3,0.9,0.9,2.4
					c0.6,1.6,1.5,3.8,3.2,6.2c1.6,2.4,4,5.1,7.3,7.3c3.2,2.2,7.3,3.8,11.8,4.3c2.2,0.3,4.4,0.2,6.5,0c2.1-0.3,4.1-0.7,5.7-1.7
					c1.6-1,2.5-2.7,2.5-4.3c0-0.8-0.4-1.5-0.9-2.1c-0.5-0.6-1.2-0.9-1.8-1.1c-1.4-0.5-2.7-0.5-3.9-0.5c-1.2,0-2.2,0-3.1,0
					c-0.8-0.1-1.5-0.2-1.9-0.4C269.5,289.7,269.3,289.6,269.3,289.5z"/>
			</g>
		</g>
	</g>
	<g>
		<g>
			<g>
				<path class="st4" d="M305,232.2c0,0-0.2,0.1-0.7,0.3c-0.5,0.2-1.2,0.4-2.1,0.8c-1.8,0.7-4.3,1.7-7.4,3.3c-3,1.6-6.5,3.7-10,6.5
					c-1.7,1.4-3.5,3-5.2,4.8c-1.7,1.8-3.3,3.7-4.8,5.8c-1.5,2.1-2.7,4.3-3.8,6.5c-1,2.2-1.8,4.4-2.5,6.6c-1.2,4.3-1.7,8.4-1.8,11.7
					c0,3.4,0.4,6.1,0.7,8c0.2,0.9,0.3,1.7,0.4,2.1c0.1,0.5,0.2,0.7,0.1,0.8c0,0-0.1-0.2-0.3-0.7c-0.2-0.5-0.4-1.2-0.6-2.1
					c-0.4-1.9-1-4.6-1-8.1c0-3.4,0.4-7.6,1.6-12c0.6-2.2,1.4-4.4,2.5-6.7c1.1-2.2,2.3-4.5,3.8-6.7c1.5-2.2,3.2-4.1,4.9-5.9
					c1.7-1.8,3.5-3.4,5.3-4.8c3.6-2.8,7.1-4.9,10.2-6.4c3.1-1.5,5.7-2.5,7.5-3.1C304,232.4,305,232.1,305,232.2z"/>
			</g>
		</g>
	</g>
	<g>
		<g>
			<g>
				<path class="st4" d="M219.2,198c0.1,0,0.5,0.5,1.1,1.6c0.7,1.1,1.5,2.7,2.4,4.8c0.8,2.1,1.7,4.7,2.2,7.7c0.6,3,0.9,6.3,1,9.7
					c0.1,7-1,13.2-1.8,17.6c-0.4,2.2-0.8,4-1.1,5.2c-0.3,1.2-0.5,1.9-0.6,1.9c-0.1,0,0-0.7,0.2-2c0.2-1.2,0.5-3.1,0.9-5.3
					c0.7-4.5,1.6-10.6,1.6-17.5c0-3.4-0.4-6.7-0.9-9.6c-0.5-2.9-1.3-5.5-2-7.6c-0.8-2.1-1.6-3.7-2.1-4.9
					C219.5,198.6,219.1,198,219.2,198z"/>
			</g>
		</g>
	</g>
	<g>
		<g>
			<g>
				<path class="st4" d="M279,200.3c0,0.1-0.7,0.5-1.9,1.5c-1.3,0.9-3.1,2.2-5.3,3.9c-4.4,3.4-10.4,8.3-16.6,14.1
					c-3.1,2.9-6.1,5.7-8.7,8.3c-2.6,2.6-4.6,5.3-5.4,7.9c-0.8,2.6-0.6,4.9-0.1,6.4c0.5,1.5,1,2.2,1,2.2c0,0-0.7-0.6-1.3-2.1
					c-0.6-1.5-0.9-3.9-0.1-6.7c0.8-2.8,2.8-5.6,5.4-8.3c2.6-2.7,5.5-5.5,8.7-8.4c6.3-5.8,12.3-10.7,16.8-14c2.3-1.6,4.2-2.9,5.5-3.7
					C278.2,200.7,279,200.3,279,200.3z"/>
			</g>
		</g>
	</g>
</g>
</svg>
